<svg width="24" height="24" viewBox="0 0 24 24" fill="none" xmlns="http://www.w3.org/2000/svg">
<path d="M5.87344 13.5609C6.68438 13.5609 7.45312 13.8797 8.03437 14.4609C8.61562 15.0422 8.93438 15.8109 8.93438 16.6219C8.93438 17.4328 8.61562 18.2016 8.03437 18.7828C7.45312 19.3641 6.68438 19.6828 5.87344 19.6828C5.0625 19.6828 4.29375 19.3641 3.7125 18.7828C3.13125 18.2063 2.8125 17.4375 2.8125 16.6266C2.8125 15.8156 3.13125 15.0469 3.7125 14.4656C4.29375 13.8844 5.0625 13.5609 5.87344 13.5609ZM5.87344 12.2484C3.46875 12.2484 1.5 14.2172 1.5 16.6219C1.5 19.0313 3.46875 21 5.87344 21C8.27813 21 10.2469 19.0313 10.2469 16.6266C10.2516 14.2172 8.28281 12.2484 5.87344 12.2484ZM14.9906 5.99063C15.825 5.99063 16.4906 5.325 16.4906 4.49063C16.4906 3.65625 15.8344 3 15 3C14.1656 3 13.4906 3.65625 13.4906 4.49063C13.4906 5.32031 14.1609 5.99063 14.9906 5.99063ZM18.1266 13.5609C18.9375 13.5609 19.7062 13.8797 20.2875 14.4609C20.8687 15.0422 21.1875 15.8109 21.1875 16.6219C21.1875 17.4328 20.8687 18.2016 20.2875 18.7828C19.7062 19.3688 18.9375 19.6875 18.1266 19.6875C17.3156 19.6875 16.5469 19.3687 15.9656 18.7875C15.3844 18.2062 15.0656 17.4375 15.0656 16.6266C15.0656 15.8156 15.3844 15.0469 15.9656 14.4656C16.5422 13.8844 17.3109 13.5609 18.1266 13.5609ZM18.1266 12.2484C15.7219 12.2484 13.7531 14.2172 13.7531 16.6219C13.7531 19.0266 15.7219 20.9953 18.1266 20.9953C20.5313 20.9953 22.5 19.0266 22.5 16.6219C22.5 14.2172 20.5313 12.2484 18.1266 12.2484Z" fill="#2E3A59"/>
<path d="M17.25 9H15L13.6172 6.18281C13.3547 5.74687 12.8719 5.4375 12.3469 5.4375C11.9531 5.4375 11.5594 5.61094 11.2969 5.87344L7.93594 9.1125C7.67344 9.375 7.5 9.76875 7.5 10.1625C7.5 10.9781 8.09062 11.2687 8.36719 11.4328C10.5 12.6609 11.25 12.7969 11.25 13.4109V16.5C11.25 16.9125 11.5875 17.25 12 17.25C12.4125 17.25 12.75 16.9125 12.75 16.5V12.2812C12.75 11.6625 11.325 11.1562 10.4859 10.5L12.7781 8.08594C13.6547 9.42188 14.0578 10.5 14.5594 10.5H17.25C17.6625 10.5 18 10.1625 18 9.75C18 9.3375 17.6625 9 17.25 9Z" fill="#2E3A59"/>
</svg>
