<svg width="24" height="24" viewBox="0 0 24 24" fill="none" xmlns="http://www.w3.org/2000/svg">
<path d="M18.9004 5.49998C18.7002 4.89989 18.1504 4.5 17.5 4.5H6.50002C5.84963 4.5 5.29983 4.89989 5.09962 5.49998L3 11V18.5C3 19.0498 3.45019 19.5 3.99998 19.5H5.00002C5.54981 19.5 6 19.0498 6 18.5V18H18V18.5C18 19.0498 18.4502 19.5 19 19.5H20C20.5498 19.5 21 19.0498 21 18.5V11L18.9004 5.49998ZM6.50002 15C5.65041 15 5.00002 14.3501 5.00002 13.5C5.00002 12.6499 5.65041 12 6.50002 12C7.34963 12 8.00002 12.65 8.00002 13.5C8.00002 14.35 7.34963 15 6.50002 15ZM17.5 15C16.6504 15 16 14.3501 16 13.5C16 12.6499 16.6504 12 17.5 12C18.3496 12 19 12.65 19 13.5C19 14.35 18.3496 15 17.5 15ZM5.00002 9.99998L6.50002 6H17.5L19 9.99998H5.00002Z" fill="#2E3A59"/>
</svg>
