<svg width="69" height="69" viewBox="0 0 69 69" fill="none" xmlns="http://www.w3.org/2000/svg">
<path d="M40.6883 34.4051C29.4692 33.8098 18.0926 33.8098 6.87423 34.4051L6.79395 32.8926C18.0661 32.2943 29.4972 32.2943 40.7686 32.8926L40.6883 34.4051Z" fill="#2E3A59"/>
<path d="M33.039 48.839H14.524C14.1059 48.839 13.7666 48.5004 13.7666 48.0816C13.7666 47.6628 14.1059 47.3242 14.524 47.3242H33.039C33.457 47.3242 33.7963 47.6628 33.7963 48.0816C33.7963 48.5004 33.457 48.839 33.039 48.839Z" fill="#2E3A59"/>
<path d="M9.70403 59.8343H3.15494C1.91889 59.8343 0.913086 58.8285 0.913086 57.5917V50.96C0.913086 50.5412 1.25239 50.2026 1.67047 50.2026C2.08854 50.2026 2.42785 50.5412 2.42785 50.96V57.5917C2.42785 57.9931 2.75428 58.3195 3.15494 58.3195H9.70403C10.1054 58.3195 10.4319 57.9931 10.4319 57.5917V54.1388C10.4319 53.7199 10.7712 53.3814 11.1893 53.3814C11.6073 53.3814 11.9466 53.7199 11.9466 54.1388V57.5917C11.9466 58.8285 10.9408 59.8343 9.70403 59.8343Z" fill="#2E3A59"/>
<path d="M44.4069 59.8342H37.8578C36.621 59.8342 35.6152 58.8284 35.6152 57.5916V54.278C35.6152 53.8592 35.9538 53.5207 36.3726 53.5207C36.7914 53.5207 37.13 53.8592 37.13 54.278V57.5916C37.13 57.993 37.4564 58.3194 37.8578 58.3194H44.4069C44.8083 58.3194 45.1348 57.993 45.1348 57.5916V50.9546C45.1348 50.5358 45.4733 50.1973 45.8922 50.1973C46.311 50.1973 46.6495 50.5358 46.6495 50.9546V57.5916C46.6495 58.8284 45.6437 59.8342 44.4069 59.8342Z" fill="#2E3A59"/>
<path d="M30.1903 45.7311H17.3716C16.9536 45.7311 16.6143 45.3925 16.6143 44.9737C16.6143 44.5549 16.9536 44.2163 17.3716 44.2163H30.1903C30.6084 44.2163 30.9477 44.5549 30.9477 44.9737C30.9477 45.3925 30.6092 45.7311 30.1903 45.7311Z" fill="#2E3A59"/>
<path d="M7.3746 48.2729C6.81566 48.2729 6.27337 48.1449 5.77425 47.8889C4.78284 47.3814 4.10044 46.44 3.85277 45.2373C3.61723 44.0959 3.80582 42.847 4.3837 41.7185C5.60536 39.3343 8.2153 38.2232 10.2034 39.2419C11.1948 39.7493 11.8772 40.6907 12.1249 41.8935C12.3605 43.0348 12.1719 44.2838 11.594 45.4123C11.0161 46.5392 10.1125 47.4231 9.04918 47.8987C8.4925 48.1487 7.92522 48.2729 7.3746 48.2729ZM8.59551 40.3734C7.53138 40.3734 6.37865 41.1474 5.7326 42.41C5.31149 43.2317 5.17062 44.1277 5.33724 44.9321C5.49024 45.6751 5.89089 46.2469 6.46575 46.5415C7.0406 46.8354 7.73815 46.8263 8.4304 46.5173C9.18021 46.1818 9.82474 45.544 10.2458 44.7223C10.6669 43.9005 10.8078 43.0045 10.642 42.2002C10.4882 41.4572 10.0883 40.8854 9.51345 40.5908C9.22565 40.4438 8.91436 40.3734 8.59551 40.3734Z" fill="#2E3A59"/>
<path d="M40.1887 48.2729C39.6373 48.2729 39.07 48.1487 38.5141 47.8995C37.4507 47.4238 36.5464 46.5407 35.97 45.413C35.3914 44.2853 35.2036 43.0356 35.4384 41.8942C35.686 40.6915 36.3692 39.75 37.3598 39.2426C38.3528 38.7336 39.5146 38.7306 40.634 39.232C41.6974 39.7076 42.6017 40.5907 43.1788 41.7185C44.3997 44.1027 43.7756 46.871 41.7883 47.8889C41.2891 48.1449 40.7469 48.2729 40.1887 48.2729ZM38.961 40.3756C38.6383 40.3756 38.3301 40.4476 38.0506 40.59C37.4757 40.8846 37.0751 41.4564 36.9221 42.1994C36.7562 43.0045 36.8971 43.8997 37.3174 44.7215C37.7378 45.5433 38.3831 46.181 39.1329 46.5165C39.8259 46.8255 40.5227 46.8346 41.0983 46.5407C42.3434 45.903 42.6714 44.0497 41.8314 42.4092C41.4103 41.5875 40.7666 40.9497 40.016 40.6142C39.6593 40.4552 39.3018 40.3756 38.961 40.3756Z" fill="#2E3A59"/>
<path d="M41.4429 54.8972H6.12011C3.22313 54.8972 0.828281 52.6311 0.668473 49.7379L0.39733 44.8384C0.211014 41.4741 1.44479 38.153 3.78207 35.7263L6.18525 33.2307L9.09133 25.9712C9.63059 24.6231 10.85 23.6809 12.2739 23.5128C19.9098 22.61 27.6525 22.6107 35.2877 23.5128C36.7108 23.6809 37.9302 24.6231 38.4702 25.9712L41.3755 33.2307L43.7802 35.7271C46.1167 38.1545 47.3505 41.4756 47.1642 44.8391L46.8938 49.7386C46.7348 52.6311 44.3399 54.8972 41.4429 54.8972ZM23.7815 24.3504C19.9961 24.3504 16.2107 24.5723 12.4518 25.0169C11.5801 25.1199 10.831 25.7008 10.4978 26.534L7.48189 34.0676L4.87271 36.7768C2.82701 38.902 1.74699 41.8104 1.90907 44.7551L2.18021 49.6546C2.29533 51.745 4.02595 53.3824 6.11936 53.3824H41.4422C43.5356 53.3824 45.2662 51.745 45.3813 49.6553L45.6517 44.7551C45.8146 41.8096 44.7345 38.902 42.6881 36.7768L40.0796 34.0684L37.0637 26.534C36.7313 25.7008 35.9814 25.1199 35.1097 25.0169C31.3516 24.5723 27.5662 24.3504 23.7815 24.3504Z" fill="#2E3A59"/>
<path d="M62.0894 20.6617C62.0757 20.6617 62.0621 20.6617 62.0485 20.6609C50.8294 20.0656 39.4535 20.0656 28.2344 20.6609C27.8231 20.6829 27.4603 20.3625 27.4376 19.9452C27.4156 19.5271 27.736 19.1712 28.1533 19.1485C39.4254 18.5501 50.8559 18.5501 62.128 19.1485C62.5461 19.1704 62.8672 19.5271 62.8445 19.9452C62.824 20.3482 62.4893 20.6617 62.0894 20.6617Z" fill="#2E3A59"/>
<path d="M54.3993 35.0939H48.5015C48.0827 35.0939 47.7441 34.7546 47.7441 34.3365C47.7441 33.9184 48.0827 33.5791 48.5015 33.5791H54.3993C54.8181 33.5791 55.1566 33.9184 55.1566 34.3365C55.1566 34.7546 54.8173 35.0939 54.3993 35.0939Z" fill="#2E3A59"/>
<path d="M65.7683 46.0908H59.2192C57.9824 46.0908 56.9766 45.085 56.9766 43.8482V40.5347C56.9766 40.1158 57.3151 39.7773 57.7339 39.7773C58.1528 39.7773 58.4913 40.1158 58.4913 40.5347V43.8482C58.4913 44.2496 58.8178 44.5761 59.2192 44.5761H65.7683C66.1697 44.5761 66.4961 44.2496 66.4961 43.8482V37.2105C66.4961 36.7917 66.8347 36.4531 67.2535 36.4531C67.6723 36.4531 68.0109 36.7917 68.0109 37.2105V43.8482C68.0109 45.085 67.0043 46.0908 65.7683 46.0908Z" fill="#2E3A59"/>
<path d="M51.5512 31.9869H46.1548C45.736 31.9869 45.3975 31.6476 45.3975 31.2296C45.3975 30.8115 45.736 30.4722 46.1548 30.4722H51.5512C51.97 30.4722 52.3086 30.8115 52.3086 31.2296C52.3086 31.6476 51.97 31.9869 51.5512 31.9869Z" fill="#2E3A59"/>
<path d="M61.5614 34.5226C59.9353 34.5226 58.2433 33.4516 57.3299 31.668C56.109 29.2838 56.7323 26.5163 58.7197 25.4976C60.7078 24.4789 63.3178 25.5908 64.5394 27.9742C65.7611 30.3585 65.137 33.126 63.1496 34.1446C62.6483 34.4006 62.1082 34.5226 61.5614 34.5226ZM60.3276 26.6299C60.0088 26.6299 59.6975 26.6996 59.4104 26.8465C58.1661 27.4842 57.8374 29.3375 58.6773 30.9773C59.5172 32.6178 61.2168 33.4335 62.4582 32.7965C63.7033 32.1588 64.0312 30.3055 63.1913 28.665C62.5453 27.4039 61.3918 26.6299 60.3276 26.6299Z" fill="#2E3A59"/>
<path d="M62.8031 41.1528H50.3351C49.9162 41.1528 49.5777 40.8143 49.5777 40.3954C49.5777 39.9766 49.9162 39.6381 50.3351 39.6381H62.8031C64.8965 39.6381 66.6271 38.0006 66.7423 35.911L67.0126 31.01C67.1755 28.0652 66.0954 25.1577 64.049 23.0324L61.5421 20.4293C61.4747 20.3589 61.4209 20.2756 61.3845 20.1854L58.4247 12.7888C58.0914 11.9565 57.3424 11.3748 56.4706 11.2718C48.9521 10.3826 41.3283 10.3834 33.8128 11.2718C32.9403 11.3748 32.1912 11.9557 31.858 12.7888L28.8973 20.1854C28.7421 20.574 28.3028 20.7633 27.9128 20.6073C27.5242 20.452 27.3356 20.0112 27.4909 19.6227L30.4515 12.2261C30.9915 10.878 32.2109 9.93578 33.6348 9.76764C41.2692 8.86559 49.0119 8.86484 56.6486 9.76764C58.0717 9.93578 59.2911 10.878 59.8311 12.2261L62.7365 19.4856L65.1411 21.9812C67.4777 24.4086 68.7114 27.7297 68.5251 31.0933L68.2547 35.9935C68.0957 38.8867 65.7008 41.1528 62.8031 41.1528Z" fill="#2E3A59"/>
</svg>
