<svg width="69" height="69" viewBox="0 0 69 69" fill="none" xmlns="http://www.w3.org/2000/svg">
<path d="M40.6883 40.2046C29.4692 39.6085 18.0926 39.6085 6.87423 40.2046L6.79395 38.6913C18.0661 38.0938 29.4972 38.0938 40.7686 38.6913L40.6883 40.2046Z" fill="#2E3A59"/>
<path d="M33.039 54.6373H14.524C14.1059 54.6373 13.7666 54.2988 13.7666 53.8799C13.7666 53.4611 14.1059 53.1226 14.524 53.1226H33.039C33.457 53.1226 33.7963 53.4611 33.7963 53.8799C33.7963 54.2988 33.457 54.6373 33.039 54.6373Z" fill="#2E3A59"/>
<path d="M9.70479 65.6346H3.15494C1.91889 65.6346 0.913086 64.6288 0.913086 63.392V56.7603C0.913086 56.3415 1.25239 56.0029 1.67047 56.0029C2.08854 56.0029 2.42785 56.3415 2.42785 56.7603V63.392C2.42785 63.7934 2.75428 64.1198 3.15494 64.1198H9.70403C10.1054 64.1198 10.4319 63.7934 10.4319 63.392V59.939C10.4319 59.5202 10.7712 59.1817 11.1893 59.1817C11.6073 59.1817 11.9466 59.5202 11.9466 59.939V63.392C11.9466 64.628 10.9408 65.6346 9.70479 65.6346Z" fill="#2E3A59"/>
<path d="M44.4069 65.6343H37.8578C36.621 65.6343 35.6152 64.6285 35.6152 63.3917V60.0774C35.6152 59.6585 35.9538 59.32 36.3726 59.32C36.7914 59.32 37.13 59.6585 37.13 60.0774V63.3917C37.13 63.7931 37.4564 64.1195 37.8578 64.1195H44.4069C44.8083 64.1195 45.1348 63.7931 45.1348 63.3917V56.754C45.1348 56.3351 45.4733 55.9966 45.8922 55.9966C46.311 55.9966 46.6495 56.3351 46.6495 56.754V63.3917C46.6495 64.6277 45.6437 65.6343 44.4069 65.6343Z" fill="#2E3A59"/>
<path d="M30.1913 51.5304H17.3726C16.9545 51.5304 16.6152 51.1918 16.6152 50.773C16.6152 50.3542 16.9545 50.0156 17.3726 50.0156H30.1913C30.6094 50.0156 30.9487 50.3542 30.9487 50.773C30.9487 51.1918 30.6094 51.5304 30.1913 51.5304Z" fill="#2E3A59"/>
<path d="M7.37385 54.072C6.81566 54.072 6.27337 53.944 5.77425 53.688C4.78284 53.1806 4.10044 52.2392 3.85277 51.0364C3.61723 49.8951 3.80582 48.6461 4.3837 47.5176C5.60536 45.1334 8.2153 44.0216 10.2034 45.041C11.1948 45.5485 11.8772 46.4899 12.1249 47.6918C12.3605 48.8332 12.1719 50.0821 11.594 51.2106C11.0161 52.3376 10.1125 53.2215 9.04918 53.6971C8.4925 53.9471 7.92522 54.072 7.37385 54.072ZM8.59551 46.1725C7.53138 46.1725 6.37865 46.9466 5.7326 48.2091C5.31149 49.0309 5.17062 49.9269 5.33724 50.7312C5.49024 51.4742 5.89089 52.046 6.46575 52.3407C7.03984 52.6345 7.73815 52.6262 8.4304 52.3157C9.1802 51.9801 9.82474 51.3424 10.2458 50.5207C10.6669 49.6989 10.8078 48.8029 10.642 47.9993C10.4882 47.2563 10.0883 46.6845 9.51345 46.3899C9.22641 46.243 8.91512 46.1725 8.59551 46.1725Z" fill="#2E3A59"/>
<path d="M40.1885 54.0724C39.6372 54.0724 39.0699 53.9474 38.514 53.6983C37.4506 53.2226 36.5463 52.3395 35.9699 51.2118C35.392 50.084 35.2034 48.8343 35.4382 47.693C35.6859 46.491 36.3691 45.5496 37.3597 45.0421C38.3526 44.5339 39.5145 44.5301 40.6339 45.0315C41.6972 45.5072 42.6016 46.3903 43.1787 47.518C44.3996 49.9022 43.7755 52.6705 41.7881 53.6884C41.2898 53.9444 40.7467 54.0724 40.1885 54.0724ZM38.9608 46.1752C38.6382 46.1752 38.3299 46.2471 38.0504 46.3895C37.4756 46.6841 37.0749 47.256 36.9219 47.9989C36.7561 48.8033 36.897 49.6985 37.3173 50.5203C37.7376 51.342 38.3829 51.9797 39.1335 52.3153C39.8265 52.6266 40.5248 52.6334 41.0982 52.3403C42.3433 51.7025 42.6712 49.8492 41.8313 48.2087C41.4102 47.387 40.7664 46.7493 40.0159 46.4137C39.6599 46.2547 39.3016 46.1752 38.9608 46.1752Z" fill="#2E3A59"/>
<path d="M41.4429 60.6961H6.12011C3.22313 60.6961 0.828281 58.43 0.668473 55.5368L0.39733 50.6365C0.211014 47.2722 1.44479 43.9511 3.78207 41.5252L6.18525 39.0289L9.09133 31.7694C9.63059 30.4212 10.85 29.479 12.2739 29.3109C19.909 28.4081 27.6525 28.4081 35.2877 29.3109C36.7108 29.479 37.9302 30.4212 38.4702 31.7694L41.3755 39.0289L43.7802 41.5252C46.1167 43.9519 47.3505 47.273 47.1642 50.6365L46.8938 55.5368C46.7355 58.43 44.3407 60.6961 41.4429 60.6961ZM23.7815 30.1486C19.9961 30.1486 16.2115 30.3705 12.4526 30.8151C11.5801 30.9181 10.831 31.499 10.4978 32.3321L7.48265 39.8658L4.87346 42.5749C2.82701 44.6994 1.74774 47.607 1.90982 50.5517L2.18097 55.4527C2.29609 57.5431 4.02671 59.1806 6.12011 59.1806H41.4429C43.5363 59.1806 45.267 57.5431 45.3821 55.4535L45.6525 50.5524C45.8153 47.607 44.7353 44.6994 42.6888 42.5749L40.0804 39.8658L37.0645 32.3321C36.732 31.499 35.9822 30.9181 35.1105 30.8151C31.3516 30.3712 27.5669 30.1486 23.7815 30.1486Z" fill="#2E3A59"/>
<path d="M62.0894 26.461C62.0757 26.461 62.0621 26.461 62.0485 26.4603C50.8294 25.865 39.4535 25.865 28.2344 26.4603C27.8231 26.4807 27.4603 26.1619 27.4376 25.7445C27.4156 25.3265 27.736 24.9705 28.1533 24.9478C39.4254 24.3494 50.8559 24.3494 62.128 24.9478C62.5461 24.9697 62.8672 25.3265 62.8445 25.7445C62.824 26.1482 62.4893 26.461 62.0894 26.461Z" fill="#2E3A59"/>
<path d="M54.3993 40.8932H48.5015C48.0827 40.8932 47.7441 40.5546 47.7441 40.1358C47.7441 39.717 48.0827 39.3784 48.5015 39.3784H54.3993C54.8181 39.3784 55.1566 39.717 55.1566 40.1358C55.1566 40.5546 54.8181 40.8932 54.3993 40.8932Z" fill="#2E3A59"/>
<path d="M65.7683 51.8901H59.2192C57.9824 51.8901 56.9766 50.8843 56.9766 49.6475V46.3332C56.9766 45.9144 57.3151 45.5758 57.7339 45.5758C58.1528 45.5758 58.4913 45.9144 58.4913 46.3332V49.6475C58.4913 50.0489 58.8178 50.3754 59.2192 50.3754H65.7683C66.1697 50.3754 66.4961 50.0489 66.4961 49.6475V43.0098C66.4961 42.591 66.8347 42.2524 67.2535 42.2524C67.6723 42.2524 68.0109 42.591 68.0109 43.0098V49.6475C68.0109 50.8843 67.0051 51.8901 65.7683 51.8901Z" fill="#2E3A59"/>
<path d="M51.5512 37.7862H46.1548C45.736 37.7862 45.3975 37.4477 45.3975 37.0289C45.3975 36.61 45.736 36.2715 46.1548 36.2715H51.5512C51.97 36.2715 52.3086 36.61 52.3086 37.0289C52.3086 37.4477 51.97 37.7862 51.5512 37.7862Z" fill="#2E3A59"/>
<path d="M61.5614 40.3214C59.9353 40.3214 58.2433 39.2505 57.3299 37.4668C56.109 35.0826 56.7323 32.3151 58.7197 31.2964C60.7078 30.2778 63.3178 31.3896 64.5394 33.7731C65.7603 36.1573 65.137 38.9248 63.1496 39.9427C62.649 40.2002 62.109 40.3214 61.5614 40.3214ZM60.3276 32.4287C60.0088 32.4287 59.6975 32.4984 59.4104 32.6453C58.1661 33.2831 57.8374 35.1364 58.6773 36.7761C59.5172 38.4158 61.2123 39.2308 62.4582 38.5953C63.7025 37.9576 64.0312 36.1043 63.1913 34.4638C62.5453 33.2028 61.3925 32.4287 60.3276 32.4287Z" fill="#2E3A59"/>
<path d="M62.8039 46.9511H50.3358C49.917 46.9511 49.5784 46.6126 49.5784 46.1937C49.5784 45.7749 49.917 45.4363 50.3358 45.4363H62.8039C64.8973 45.4363 66.6279 43.7989 66.743 41.7093L67.0134 36.809C67.1762 33.8635 66.0962 30.9559 64.0498 28.8315L61.5428 26.2283C61.4754 26.1579 61.4216 26.0746 61.3853 25.9845L58.4254 18.5879C58.0922 17.7555 57.3431 17.1738 56.4714 17.0708C48.9528 16.1817 41.3298 16.1817 33.8128 17.0708C32.941 17.1738 32.192 17.7547 31.858 18.5879L28.8973 25.9845C28.7421 26.373 28.3028 26.5631 27.9128 26.4063C27.5242 26.2511 27.3356 25.8103 27.4909 25.4217L30.4515 18.0251C30.9915 16.677 32.2109 15.7348 33.6348 15.5667C41.2692 14.6646 49.0119 14.6646 56.6486 15.5667C58.0717 15.7348 59.2911 16.677 59.8311 18.0251L62.7365 25.2854L65.1411 27.781C67.4777 30.2076 68.7114 33.5288 68.5251 36.8931L68.2547 41.7926C68.0957 44.685 65.7008 46.9511 62.8039 46.9511Z" fill="#2E3A59"/>
<path d="M38.8531 13.6287C38.8394 13.6287 38.8258 13.6287 38.8122 13.6279C28.9692 13.1053 18.9877 13.1053 9.14549 13.6279C8.7365 13.6521 8.37144 13.3295 8.34872 12.9122C8.32676 12.4941 8.64713 12.1381 9.06445 12.1154C18.9619 11.5898 28.9972 11.5898 38.8917 12.1154C39.3098 12.1374 39.6309 12.4941 39.6082 12.9122C39.5877 13.3151 39.253 13.6287 38.8531 13.6287Z" fill="#2E3A59"/>
<path d="M23.9401 26.295H15.855C15.437 26.295 15.0977 25.9557 15.0977 25.5377C15.0977 25.1196 15.437 24.7803 15.855 24.7803H23.9401C24.3582 24.7803 24.6975 25.1196 24.6975 25.5377C24.6975 25.9557 24.3582 26.295 23.9401 26.295Z" fill="#2E3A59"/>
<path d="M23.6671 23.5685H18.3541C17.936 23.5685 17.5967 23.2292 17.5967 22.8111C17.5967 22.393 17.936 22.0537 18.3541 22.0537H23.6671C24.0852 22.0537 24.4245 22.393 24.4245 22.8111C24.4245 23.2292 24.0859 23.5685 23.6671 23.5685Z" fill="#2E3A59"/>
<path d="M9.56856 25.7931C9.07399 25.7931 8.58624 25.6832 8.13332 25.4515C6.34363 24.5343 5.77786 22.0493 6.87228 19.9112C7.38882 18.9024 8.19846 18.1124 9.15049 17.686C10.1601 17.2346 11.2098 17.2392 12.1043 17.6974C12.9995 18.1556 13.616 19.0054 13.8387 20.0885C14.0492 21.1109 13.8811 22.2288 13.3646 23.2377C12.5474 24.835 11.0303 25.7931 9.56856 25.7931ZM10.6569 18.8683C10.3706 18.8683 10.07 18.9357 9.77003 19.0698C9.1308 19.3553 8.58094 19.8999 8.22118 20.6027C7.50697 21.9971 7.77735 23.5679 8.82406 24.1041C9.87 24.6396 11.303 23.942 12.0172 22.5477C12.3769 21.8456 12.4974 21.0806 12.3565 20.3952C12.2277 19.7704 11.893 19.2917 11.4143 19.0471C11.1833 18.9274 10.9266 18.8683 10.6569 18.8683Z" fill="#2E3A59"/>
<path d="M6.95158 31.3204C6.85842 31.3204 6.76375 31.303 6.67135 31.2667C5.5171 30.8069 4.5893 29.9344 4.05989 28.8105C3.79102 28.2409 3.63652 27.6305 3.60168 26.9973L3.36386 22.6961C3.19951 19.7181 4.29165 16.7779 6.36006 14.63L8.45726 12.4525L11.0005 6.09809C11.4868 4.88324 12.5858 4.03422 13.8688 3.88274C20.5784 3.09052 27.3812 3.09052 34.0886 3.88274C35.3724 4.03422 36.4713 4.88324 36.9576 6.09884L39.5561 12.5896C39.7114 12.9782 39.5228 13.4189 39.1343 13.5742C38.7465 13.7302 38.305 13.5416 38.1489 13.1523L35.5504 6.66082C35.2709 5.96176 34.643 5.47325 33.9106 5.3869C27.3199 4.60756 20.6367 4.60756 14.046 5.3869C13.3144 5.47325 12.6865 5.96176 12.4063 6.66082L9.80767 13.1523C9.77132 13.2432 9.71754 13.3258 9.65014 13.3962L7.44994 15.6805C5.67236 17.527 4.73396 20.0529 4.87559 22.6121L5.11341 26.9132C5.13765 27.351 5.24368 27.7714 5.42924 28.1637C5.79506 28.9392 6.43505 29.5414 7.23181 29.8587C7.62035 30.014 7.8097 30.454 7.65519 30.8425C7.5378 31.1402 7.25302 31.3204 6.95158 31.3204Z" fill="#2E3A59"/>
</svg>
