<svg width="69" height="69" viewBox="0 0 69 69" fill="none" xmlns="http://www.w3.org/2000/svg">
<path d="M55.4751 57.0415C52.1343 57.0415 49.416 54.3232 49.416 50.9824C49.416 47.6416 52.1343 44.9233 55.4751 44.9233C58.8159 44.9233 61.5341 47.6416 61.5341 50.9824C61.5341 54.3232 58.8159 57.0415 55.4751 57.0415ZM55.4751 46.4381C52.9689 46.4381 50.9308 48.4762 50.9308 50.9824C50.9308 53.4886 52.9689 55.5267 55.4751 55.5267C57.9813 55.5267 60.0194 53.4886 60.0194 50.9824C60.0194 48.4762 57.9813 46.4381 55.4751 46.4381Z" fill="#2E3A59"/>
<path d="M14.5083 57.0415C11.1675 57.0415 8.44922 54.3232 8.44922 50.9824C8.44922 47.6416 11.1675 44.9233 14.5083 44.9233C17.8491 44.9233 20.5673 47.6416 20.5673 50.9824C20.5673 54.3232 17.8491 57.0415 14.5083 57.0415ZM14.5083 46.4381C12.0021 46.4381 9.96398 48.4762 9.96398 50.9824C9.96398 53.4886 12.0021 55.5267 14.5083 55.5267C17.0145 55.5267 19.0526 53.4886 19.0526 50.9824C19.0526 48.4762 17.0145 46.4381 14.5083 46.4381Z" fill="#2E3A59"/>
<path d="M65.9492 51.9721H60.7762C60.3574 51.9721 60.0189 51.6336 60.0189 51.2148C60.0189 50.7959 60.3574 50.4574 60.7762 50.4574H65.9492C66.5437 50.4574 67.0284 49.9726 67.0284 49.3781V42.8146C67.0284 42.0603 66.4915 41.4036 65.7507 41.2529L52.7836 38.6225C52.3738 38.5392 52.1088 38.1393 52.1921 37.7288C52.2754 37.319 52.6692 37.0509 53.0858 37.1373L66.0529 39.7677C67.4957 40.0623 68.5432 41.343 68.5432 42.8146V49.3781C68.5432 50.8088 67.3799 51.9721 65.9492 51.9721Z" fill="#2E3A59"/>
<path d="M50.1824 51.9723H19.8023C19.3842 51.9723 19.0449 51.6337 19.0449 51.2149C19.0449 50.7961 19.3842 50.4575 19.8023 50.4575H50.1824C50.6013 50.4575 50.9398 50.7961 50.9398 51.2149C50.9398 51.6337 50.6013 51.9723 50.1824 51.9723Z" fill="#2E3A59"/>
<path d="M9.2062 51.7394C9.11607 51.7394 9.02519 51.7235 8.93657 51.6902L0.866661 48.6091C0.572796 48.4963 0.378906 48.2153 0.378906 47.901V39.4781C0.378906 38.1762 1.312 37.0863 2.59728 36.8848L10.5112 35.6435L14.47 31.8202C16.0795 30.2661 18.0842 29.1853 20.2685 28.696C20.679 28.6021 21.082 28.8611 21.1729 29.2693C21.2645 29.6776 21.0077 30.0828 20.5995 30.1737C18.6871 30.6023 16.9315 31.5483 15.522 32.9093L11.3913 36.9C11.2792 37.0083 11.1368 37.0787 10.9823 37.1037L2.83131 38.3822C2.28827 38.467 1.89367 38.9275 1.89367 39.4781V47.3799L9.47659 50.2738C9.8674 50.423 10.0636 50.8608 9.91436 51.2516C9.79923 51.5531 9.51143 51.7394 9.2062 51.7394Z" fill="#2E3A59"/>
<path d="M52.9349 38.6385C52.7728 38.6385 52.6092 38.587 52.4721 38.4795L46.6191 33.9412C46.2881 33.6852 46.2275 33.2096 46.4843 32.8786C46.741 32.5484 47.2174 32.4878 47.5461 32.7446L53.3992 37.2828C53.7301 37.5388 53.7907 38.0152 53.534 38.3446C53.384 38.5378 53.1606 38.6385 52.9349 38.6385Z" fill="#2E3A59"/>
<path d="M34.4615 40.3145C34.3728 40.3145 34.2842 40.2986 34.2002 40.2675C27.3375 37.7447 22.7266 30.6268 22.7266 22.5569V17.2605C22.7266 16.925 22.9477 16.6296 23.2696 16.5342C25.2259 15.9563 26.8005 14.3824 27.3784 12.4254C27.4731 12.1035 27.7692 11.8823 28.1047 11.8823H40.8204C41.156 11.8823 41.4521 12.1035 41.5468 12.4254C42.1247 14.3817 43.6985 15.9563 45.6556 16.5342C45.9775 16.6288 46.1986 16.925 46.1986 17.2605V22.5569C46.1986 30.6268 41.5877 37.7447 34.7243 40.2675C34.6387 40.2986 34.5501 40.3145 34.4615 40.3145ZM24.2406 17.8028V22.5561C24.2406 29.774 28.4297 36.3859 34.4615 38.7459C40.4932 36.3859 44.6823 29.774 44.6823 22.5561V17.8028C42.67 17.034 41.0446 15.4087 40.2766 13.3971H28.647C27.8783 15.4087 26.2529 17.0348 24.2406 17.8028Z" fill="#2E3A59"/>
<path d="M32.6679 30.1934C32.6611 30.1934 32.6543 30.1934 32.6482 30.1934C32.424 30.1873 32.2142 30.0828 32.0749 29.9071L28.9567 25.9725C28.6969 25.6446 28.7522 25.1682 29.0802 24.9084C29.4074 24.6486 29.8845 24.7031 30.1443 25.0318L32.7005 28.2568L38.8065 21.3366C39.0844 21.0223 39.5623 20.9942 39.8759 21.2699C40.1895 21.5471 40.219 22.0258 39.9426 22.3393L33.2374 29.9382C33.092 30.1002 32.8853 30.1934 32.6679 30.1934Z" fill="#2E3A59"/>
</svg>
