<svg width="69" height="69" viewBox="0 0 69 69" fill="none" xmlns="http://www.w3.org/2000/svg">
<path d="M32.1042 10.478H26.5737H21.7288H16.6202H11.0898H6.24559H1.13629C0.718214 10.478 0.378906 10.8173 0.378906 11.2354V26.7193V42.2033V57.6872C0.378906 58.106 0.718214 58.4446 1.13629 58.4446H16.6202H32.1042C32.5222 58.4446 32.8615 58.106 32.8615 57.6872V42.2033V26.7193V11.2354C32.8615 10.8173 32.5222 10.478 32.1042 10.478ZM22.4862 42.9607H25.8164V47.867H22.4862V42.9607ZM26.5737 41.4459H21.7288H17.3776V27.4767H20.9714V33.1404C20.9714 33.5585 21.3107 33.8978 21.7288 33.8978H26.5737C26.9918 33.8978 27.3311 33.5585 27.3311 33.1404V27.4767H31.3468V41.4459H26.5737ZM7.00298 42.9607H10.3324V47.867H7.00298V42.9607ZM11.0898 41.4459H6.24559H1.89367V27.4767H5.48821V33.1404C5.48821 33.5585 5.82752 33.8978 6.24559 33.8978H11.0898C11.5079 33.8978 11.8472 33.5585 11.8472 33.1404V27.4767H15.8628V41.4459H11.0898ZM7.00298 27.4767H10.3324V32.3831H7.00298V27.4767ZM22.4862 27.4767H25.8164V32.3831H22.4862V27.4767ZM31.3468 25.962H26.5737H21.7288H17.3776V11.9928H20.9714V17.6565C20.9714 18.0746 21.3107 18.4139 21.7288 18.4139H26.5737C26.9918 18.4139 27.3311 18.0746 27.3311 17.6565V11.9928H31.3468V25.962ZM25.8164 11.9928V16.8991H22.4862V11.9928H25.8164ZM10.3324 11.9928V16.8991H7.00298V11.9928H10.3324ZM1.89367 11.9928H5.48821V17.6565C5.48821 18.0746 5.82752 18.4139 6.24559 18.4139H11.0898C11.5079 18.4139 11.8472 18.0746 11.8472 17.6565V11.9928H15.8628V25.962H11.0898H6.24559H1.89367V11.9928ZM1.89367 42.9607H5.48821V48.6244C5.48821 49.0432 5.82752 49.3818 6.24559 49.3818H11.0898C11.5079 49.3818 11.8472 49.0432 11.8472 48.6244V42.9599H15.8628V56.9291H1.89367V42.9607ZM31.3468 56.9298H17.3776V42.9607H20.9714V48.6244C20.9714 49.0432 21.3107 49.3818 21.7288 49.3818H26.5737C26.9918 49.3818 27.3311 49.0432 27.3311 48.6244V42.9599H31.3468V56.9298Z" fill="#2E3A59"/>
<path d="M60.5269 52.5974C57.8442 52.5974 54.998 52.0255 52.0063 50.8811C47.2257 48.8468 42.4012 48.8491 37.2305 50.8789C36.842 51.0303 36.4012 50.8402 36.249 50.4509C36.096 50.0617 36.2876 49.6216 36.6769 49.4694C42.2353 47.2866 47.4363 47.2896 52.5728 49.4777C58.1434 51.6075 63.1595 51.6173 67.4493 49.4951C67.8243 49.3096 68.2779 49.4633 68.4642 49.8382C68.6498 50.2131 68.4961 50.6676 68.1211 50.8531C65.7695 52.0165 63.2307 52.5974 60.5269 52.5974Z" fill="#2E3A59"/>
<path d="M60.5269 58.4387C57.845 58.4387 54.9987 57.8669 52.0063 56.7232C47.2257 54.6874 42.4012 54.6904 37.2305 56.7202C36.842 56.8717 36.4012 56.6816 36.249 56.2923C36.096 55.903 36.2876 55.4629 36.6769 55.3107C42.2368 53.1279 47.4363 53.1309 52.5728 55.319C58.1449 57.448 63.1595 57.4564 67.4493 55.3364C67.8243 55.1509 68.2779 55.3046 68.4642 55.6795C68.6498 56.0544 68.4961 56.5089 68.1211 56.6944C65.7695 57.8578 63.2315 58.4387 60.5269 58.4387Z" fill="#2E3A59"/>
<path d="M60.386 39.0432C60.28 39.0432 60.1816 39.0205 60.0907 38.9826C59.9998 38.9448 59.9165 38.8918 59.8483 38.8236C59.7052 38.6721 59.6211 38.4828 59.6211 38.2859C59.6211 38.1874 59.6438 38.0889 59.6817 37.998C59.7196 37.8996 59.7726 37.8163 59.8483 37.7481C59.8786 37.7178 59.9165 37.6799 59.9619 37.6572C59.9998 37.6269 60.0452 37.6042 60.0907 37.5815C60.1361 37.5656 60.1891 37.5512 60.2346 37.5429C60.4838 37.4906 60.742 37.5732 60.9155 37.7481C60.9836 37.8163 61.0442 37.8996 61.0821 37.998C61.1207 38.0889 61.1427 38.1874 61.1427 38.2859C61.1427 38.4828 61.0601 38.6721 60.9155 38.8236C60.7731 38.9592 60.5837 39.0432 60.386 39.0432Z" fill="#2E3A59"/>
<path d="M68.4332 34.0696C68.2968 33.8424 68.0514 33.7038 67.7856 33.7038H56.7566V18.4138H60.3814C60.8003 18.4138 61.1388 18.0745 61.1388 17.6564C61.1388 17.2383 60.8003 16.899 60.3814 16.899H56.7566V14.4459C56.7566 14.0278 56.418 13.6885 55.9992 13.6885C55.5804 13.6885 55.2418 14.0278 55.2418 14.4459V16.899H42.2603C41.8414 16.899 41.5029 17.2383 41.5029 17.6564C41.5029 18.0745 41.8414 18.4138 42.2603 18.4138H55.2426V33.7038H51.8806C51.5988 33.7038 51.3405 33.8599 51.2095 34.109L50.0962 36.2297H48.4163V30.9454V24.9038C48.4163 24.4857 48.0777 24.1464 47.6589 24.1464H36.8609C36.4421 24.1464 36.1035 24.4857 36.1035 24.9038V30.9454V36.9871C36.1035 37.4059 36.4421 37.7445 36.8609 37.7445H36.9541H47.6597H50.5544C50.8361 37.7445 51.0944 37.5884 51.2254 37.3393L52.3388 35.2186H66.5329L60.3504 46.9944C60.1557 47.3647 60.2989 47.823 60.6692 48.0176C60.7813 48.0759 60.9025 48.104 61.0207 48.104C61.2933 48.104 61.5569 47.957 61.6925 47.6987L68.4574 34.8134C68.5793 34.5786 68.571 34.2961 68.4332 34.0696ZM37.6183 25.6612H46.9023V30.1881H37.6183V25.6612ZM37.6183 36.2297V31.7028H46.9023V36.2297H37.6183Z" fill="#2E3A59"/>
</svg>
