<svg width="69" height="69" viewBox="0 0 69 69" fill="none" xmlns="http://www.w3.org/2000/svg">
<path d="M68.4271 53.9223C68.1522 53.3664 67.4773 53.1377 66.9214 53.4134C62.2332 55.7317 57.1504 56.8746 51.7177 56.8511L57.2489 37.9514C57.4163 37.3796 57.108 36.7759 56.5453 36.5768L50.9815 34.6083V18.5086C50.9815 17.8883 50.4786 17.3854 49.8583 17.3854H45.9798V9.07846C45.9798 8.45816 45.4769 7.9545 44.8558 7.9545H35.5855V3.4511C35.5855 2.83081 35.0826 2.32715 34.4615 2.32715C33.8405 2.32715 33.3375 2.83005 33.3375 3.4511V7.9545H24.0672C23.4469 7.9545 22.9432 8.4574 22.9432 9.07846V17.3854H19.0647C18.4444 17.3854 17.9407 17.8883 17.9407 18.5086V34.6083L12.377 36.5768C11.815 36.7759 11.506 37.3796 11.6734 37.9514L15.2111 50.0407C10.6039 50.3793 5.91347 51.482 1.09273 53.3747C0.51485 53.6012 0.230831 54.2541 0.457289 54.8312C0.683746 55.4091 1.33434 55.6916 1.91374 55.4666C13.0942 51.0768 23.5317 51.0715 33.8617 55.4704C40.1987 57.8933 46.2229 59.1044 51.8987 59.1044C57.6056 59.1044 62.9595 57.8781 67.9174 55.428C68.4741 55.1531 68.702 54.479 68.4271 53.9223ZM25.1904 10.2024H43.7326V17.3854H25.1904V10.2024ZM20.1886 19.6326H48.7351V33.8131L34.8372 28.8961C34.8266 28.8923 34.8152 28.8939 34.8046 28.8908C34.6963 28.856 34.5827 28.8318 34.4623 28.8318C34.3418 28.8318 34.2282 28.856 34.1199 28.8908C34.1093 28.8939 34.098 28.8923 34.0874 28.8961L20.1886 33.8131V19.6326ZM17.5219 49.934L14.1296 38.3399L33.3375 31.5447V46.3864C33.3375 47.0067 33.8405 47.5096 34.4615 47.5096C35.0826 47.5096 35.5855 47.0067 35.5855 46.3864V31.5455L54.7942 38.3407L49.4024 56.7663C44.7377 56.4687 39.8313 55.3477 34.7031 53.3876C29.0424 50.9769 23.3439 49.834 17.5219 49.934Z" fill="#2E3A59"/>
<path d="M45.9022 24.5011C45.9022 23.8808 45.3993 23.3779 44.7783 23.3779H24.1457C23.5254 23.3779 23.0225 23.8808 23.0225 24.5011C23.0225 25.1214 23.5254 25.6243 24.1457 25.6243H44.7783C45.3986 25.6243 45.9022 25.1214 45.9022 24.5011Z" fill="#2E3A59"/>
<path d="M39.9637 12.8901H28.9589C28.3386 12.8901 27.835 13.393 27.835 14.0141C27.835 14.6344 28.3379 15.1373 28.9589 15.1373H39.9637C40.584 15.1373 41.0876 14.6344 41.0876 14.0141C41.0876 13.393 40.584 12.8901 39.9637 12.8901Z" fill="#2E3A59"/>
<path d="M27 36C25.3457 36 24 37.5702 24 39.5C24 41.4298 25.3457 43 27 43C28.6543 43 30 41.4298 30 39.5C30 37.5702 28.6543 36 27 36ZM27 40.8435C26.4895 40.8435 26.058 40.228 26.058 39.4993C26.058 38.7705 26.4895 38.1551 27 38.1551C27.5105 38.1551 27.942 38.7705 27.942 39.4993C27.942 40.228 27.5105 40.8435 27 40.8435Z" fill="#2E3A59"/>
<path d="M41.9524 35.9551C40.1461 35.9551 38.6768 37.5918 38.6768 39.6034C38.6768 41.615 40.1461 43.2517 41.9524 43.2517C43.7588 43.2517 45.2281 41.615 45.2281 39.6034C45.2281 37.5918 43.7588 35.9551 41.9524 35.9551ZM41.9524 41.0038C41.395 41.0038 40.9239 40.3623 40.9239 39.6026C40.9239 38.843 41.395 38.2015 41.9524 38.2015C42.5099 38.2015 42.981 38.843 42.981 39.6026C42.981 40.3623 42.5099 41.0038 41.9524 41.0038Z" fill="#2E3A59"/>
<path d="M51.8987 66.5948C46.2229 66.5948 40.1987 65.3838 33.8617 62.9609C23.5317 58.5628 13.0942 58.5673 1.91374 62.9571C1.33434 63.1828 0.683746 62.8996 0.457289 62.3217C0.230831 61.7445 0.51485 61.0917 1.09273 60.8652C12.8496 56.249 23.843 56.2535 34.7031 60.8773C46.7659 65.4898 57.6192 65.5027 66.9222 60.9038C67.4781 60.6297 68.1529 60.8569 68.4278 61.4128C68.7028 61.9695 68.4748 62.6436 67.9189 62.9185C62.9603 65.3686 57.6064 66.5948 51.8987 66.5948Z" fill="#2E3A59"/>
</svg>
