<svg width="20" height="20" viewBox="0 0 20 20" fill="none" xmlns="http://www.w3.org/2000/svg">
<path d="M15.0002 18.3332H5.00016C4.07969 18.3332 3.3335 17.587 3.3335 16.6665V3.33317C3.3335 2.4127 4.07969 1.6665 5.00016 1.6665H10.8335C10.8426 1.6669 10.8516 1.66858 10.8602 1.6715C10.8683 1.67402 10.8767 1.67569 10.8852 1.6765C10.9587 1.68121 11.0312 1.6955 11.101 1.719L11.1243 1.7265C11.1432 1.73291 11.1616 1.7407 11.1793 1.74984C11.2701 1.79019 11.3528 1.84666 11.4235 1.9165L16.4235 6.9165C16.4933 6.98716 16.5498 7.06988 16.5902 7.16067C16.5985 7.179 16.6043 7.19817 16.611 7.21734L16.6185 7.239C16.6418 7.3085 16.6555 7.38082 16.6593 7.454C16.6606 7.46166 16.6626 7.46919 16.6652 7.4765C16.6666 7.48419 16.6672 7.49202 16.6669 7.49984V16.6665C16.6669 17.587 15.9206 18.3332 15.0002 18.3332ZM5.00016 3.33317V16.6665H15.0002V8.33317H10.8335C10.3733 8.33317 10.0002 7.96007 10.0002 7.49984V3.33317H5.00016ZM11.6668 4.5115V6.6665H13.8218L11.6668 4.5115Z" fill="#2E3A59"/>
</svg>
