<svg width="32" height="32" viewBox="0 0 32 32" fill="none" xmlns="http://www.w3.org/2000/svg">
<rect width="32" height="32" rx="6" fill="white"/>
<path d="M16.002 25.041C13.542 25.041 13.252 25.028 12.292 24.986C11.5433 24.9614 10.8044 24.8092 10.107 24.536C8.90026 24.0664 7.94609 23.1119 7.47695 21.905C7.21426 21.205 7.07257 20.4655 7.05795 19.718C7.00195 18.76 7.00195 18.446 7.00195 16.005C7.00195 13.538 7.01495 13.25 7.05795 12.295C7.07289 11.5485 7.21457 10.81 7.47695 10.111C7.94558 8.90253 8.9013 7.94718 10.11 7.479C10.8086 7.21521 11.5473 7.07315 12.294 7.059C13.249 7.005 13.563 7.005 16.002 7.005C18.482 7.005 18.767 7.018 19.712 7.059C20.4605 7.07327 21.2012 7.21531 21.902 7.479C23.1103 7.94771 24.0658 8.90288 24.535 10.111C24.8021 10.8202 24.9445 11.5703 24.956 12.328C25.012 13.286 25.012 13.599 25.012 16.039C25.012 18.479 24.998 18.799 24.956 19.746C24.9411 20.4942 24.799 21.2344 24.536 21.935C24.0656 23.1427 23.11 24.0976 21.902 24.567C21.2022 24.8292 20.4631 24.9709 19.716 24.986C18.761 25.041 18.448 25.041 16.002 25.041ZM15.968 8.588C13.522 8.588 13.268 8.6 12.313 8.643C11.7429 8.65056 11.1784 8.75575 10.644 8.954C9.85471 9.25601 9.23018 9.878 8.92495 10.666C8.72517 11.2063 8.61996 11.777 8.61395 12.353C8.56095 13.322 8.56095 13.576 8.56095 16.005C8.56095 18.405 8.56995 18.696 8.61395 19.659C8.62291 20.2292 8.72805 20.7938 8.92495 21.329C9.23063 22.1165 9.85505 22.738 10.644 23.04C11.1781 23.2396 11.7428 23.3448 12.313 23.351C13.281 23.407 13.536 23.407 15.968 23.407C18.421 23.407 18.675 23.395 19.622 23.351C20.1924 23.3441 20.7573 23.2389 21.292 23.04C22.0764 22.7354 22.6969 22.1153 23.002 21.331C23.2014 20.7903 23.3065 20.2193 23.313 19.643H23.324C23.367 18.687 23.367 18.432 23.367 15.989C23.367 13.546 23.356 13.289 23.313 12.334C23.304 11.7645 23.1988 11.2005 23.002 10.666C22.6976 9.88058 22.077 9.2593 21.292 8.954C20.7574 8.75475 20.1924 8.64953 19.622 8.643C18.655 8.588 18.402 8.588 15.968 8.588ZM16.002 20.624C14.1319 20.6252 12.4454 19.4997 11.7288 17.7725C11.0123 16.0452 11.4069 14.0563 12.7286 12.7335C14.0503 11.4106 16.0388 11.0143 17.7667 11.7293C19.4946 12.4444 20.6215 14.13 20.622 16C20.6192 18.5511 18.553 20.619 16.002 20.624ZM16.002 12.998C14.3451 12.998 13.002 14.3412 13.002 15.998C13.002 17.6549 14.3451 18.998 16.002 18.998C17.6588 18.998 19.002 17.6549 19.002 15.998C18.9981 14.3427 17.6572 13.0019 16.002 12.998ZM20.802 12.285C20.2074 12.2828 19.7269 11.7996 19.728 11.205C19.7291 10.6104 20.2114 10.129 20.806 10.129C21.4005 10.129 21.8828 10.6104 21.884 11.205C21.8842 11.4919 21.7702 11.767 21.5672 11.9697C21.3642 12.1723 21.0888 12.2858 20.802 12.285Z" fill="#13151D"/>
</svg>
