<svg width="32" height="32" viewBox="0 0 32 32" fill="none" xmlns="http://www.w3.org/2000/svg">
<rect width="32" height="32" rx="6" fill="white"/>
<path d="M12.7421 12.6819C11.669 13.5937 11.2758 15.2567 12.2024 16.5908C13.0695 17.8392 14.1618 18.9313 15.4099 19.798C16.7441 20.7244 18.407 20.3311 19.3187 19.2579L19.3289 19.2626C20.4934 19.8021 21.7304 20.1718 23 20.3603V23L22.9989 23L22.9961 23C15.0215 23.0113 8.99148 16.9111 9.00001 9.00359V9H11.6394L11.6395 9.00117C11.828 10.2706 12.1976 11.5065 12.7371 12.6711L12.7421 12.6819ZM22.9989 25H24C24.5523 25 25 24.5523 25 24V19.4977C25 19.0021 24.637 18.5813 24.1468 18.5086L23.2926 18.3818C22.2123 18.2215 21.1605 17.9069 20.1695 17.4478L19.4166 17.0991C18.9804 16.897 18.462 17.034 18.1826 17.4253L17.8418 17.9024C17.5431 18.3206 16.9728 18.4484 16.5506 18.1552C15.4984 17.4245 14.5761 16.5024 13.845 15.4499C13.5518 15.0277 13.6796 14.4574 14.0978 14.1587L14.5748 13.8181C14.9661 13.5386 15.1031 13.0202 14.901 12.5839L14.5518 11.8303C14.0927 10.8394 13.7782 9.78774 13.6179 8.70749L13.491 7.85316C13.4183 7.36296 12.9974 7 12.5019 7H8.00001C7.44773 7 7.00001 7.44772 7.00001 8V9.00143C6.99029 18.0079 13.9102 25.0129 22.9989 25Z" fill="#2B354B"/>
</svg>
