<svg width="32" height="32" viewBox="0 0 32 32" fill="none" xmlns="http://www.w3.org/2000/svg">
<rect width="32" height="32" rx="6" fill="white"/>
<path d="M6.00195 16.002C6.00312 20.9214 9.58036 25.1101 14.439 25.881V18.892H11.902V16.002H14.442V13.802C14.3284 12.7596 14.6845 11.7206 15.4136 10.967C16.1427 10.2133 17.1693 9.82306 18.215 9.90204C18.9655 9.91417 19.7141 9.98101 20.455 10.102V12.561H19.191C18.7558 12.504 18.3183 12.6478 18.0017 12.9517C17.6851 13.2557 17.5237 13.6869 17.563 14.124V16.002H20.334L19.891 18.893H17.563V25.881C22.8174 25.0506 26.502 20.2518 25.9475 14.9611C25.3929 9.67041 20.7932 5.73997 15.4808 6.01722C10.1683 6.29447 6.0028 10.6824 6.00195 16.002Z" fill="#13151D"/>
</svg>
