<svg width="32" height="32" viewBox="0 0 32 32" fill="none" xmlns="http://www.w3.org/2000/svg">
<rect width="32" height="32" rx="6" fill="white"/>
<path d="M23.995 10.688C24.8914 10.1521 25.5622 9.30823 25.882 8.31399C25.0397 8.81379 24.118 9.16587 23.157 9.35499C21.8246 7.94552 19.7135 7.60251 18.0034 8.51764C16.2933 9.43277 15.4075 11.3795 15.841 13.27C12.3906 13.0968 9.17598 11.4669 6.99702 8.78599C5.85986 10.7474 6.44097 13.2548 8.32502 14.516C7.64373 14.4941 6.97754 14.3096 6.38202 13.978C6.38202 13.996 6.38202 14.014 6.38202 14.032C6.38241 16.0751 7.82239 17.8351 9.82502 18.24C9.19308 18.4119 8.53022 18.4372 7.88702 18.314C8.45022 20.0613 10.0606 21.2583 11.896 21.294C10.3758 22.4871 8.49849 23.1342 6.56602 23.131C6.22349 23.1315 5.88123 23.1118 5.54102 23.072C7.50341 24.333 9.78738 25.0023 12.12 25C15.3653 25.0223 18.484 23.7429 20.7787 21.448C23.0734 19.1531 24.3526 16.0342 24.33 12.789C24.33 12.603 24.3257 12.418 24.317 12.234C25.1575 11.6266 25.8828 10.8741 26.459 10.012C25.676 10.3591 24.8455 10.5869 23.995 10.688Z" fill="#13151D"/>
</svg>
