<svg width="69" height="69" viewBox="0 0 69 69" fill="none" xmlns="http://www.w3.org/2000/svg">
<path d="M59.0618 13.5021L46.8452 1.28474C46.2605 0.700794 45.4849 0.378906 44.6586 0.378906H12.0465C10.3416 0.378906 8.9541 1.76643 8.9541 3.4713V65.451C8.9541 67.1558 10.3416 68.5434 12.0465 68.5434H56.8752C58.5801 68.5434 59.9676 67.1558 59.9676 65.451V15.6886C59.9684 14.8631 59.6465 14.0868 59.0618 13.5021ZM57.3819 13.9641H47.7533C46.9974 13.9641 46.3824 13.3491 46.3824 12.594V2.96461L57.3819 13.9641ZM58.4536 65.451C58.4536 66.3204 57.7455 67.0286 56.876 67.0286H12.0465C11.177 67.0286 10.4689 66.3204 10.4689 65.451V3.4713C10.4689 2.60182 11.177 1.89367 12.0465 1.89367H44.6586C44.7298 1.89367 44.7988 1.90503 44.8677 1.91412V12.594C44.8677 14.1845 46.162 15.4788 47.7533 15.4788H58.4324C58.4423 15.5485 58.4536 15.6182 58.4536 15.6886V65.451Z" fill="#2E3A59"/>
<path d="M33.0572 30.5305C32.6391 30.5305 32.2998 30.8698 32.2998 31.2879C32.2998 31.706 32.6391 32.0453 33.0572 32.0453H35.8648C36.2836 32.0453 36.6222 31.706 36.6222 31.2879C36.6222 30.8698 36.2836 30.5305 35.8648 30.5305H35.2188V24.4654C35.2188 24.0473 34.8795 23.708 34.4614 23.708H33.0572C32.6391 23.708 32.2998 24.0473 32.2998 24.4654C32.2998 24.8835 32.6391 25.2228 33.0572 25.2228H33.704V30.5305H33.0572Z" fill="#2E3A59"/>
<path d="M34.4615 22.4423C34.8796 22.4423 35.2189 22.103 35.2189 21.6849V20.8389C35.2189 20.4209 34.8796 20.0815 34.4615 20.0815C34.0434 20.0815 33.7041 20.4209 33.7041 20.8389V21.6849C33.7041 22.1038 34.0434 22.4423 34.4615 22.4423Z" fill="#2E3A59"/>
<path d="M34.4608 36.9706C40.1639 36.9706 44.8036 32.3308 44.8036 26.627C44.8036 20.9231 40.1639 16.2842 34.4608 16.2842C28.7577 16.2842 24.1172 20.9239 24.1172 26.6278C24.1172 32.3316 28.7577 36.9706 34.4608 36.9706ZM34.4608 17.7989C39.3292 17.7989 43.2888 21.7593 43.2888 26.6278C43.2888 31.4962 39.3292 35.4558 34.4608 35.4558C29.5923 35.4558 25.632 31.4955 25.632 26.627C25.632 21.7585 29.5923 17.7989 34.4608 17.7989Z" fill="#2E3A59"/>
<path d="M49.5323 43.5664H19.3892C18.9711 43.5664 18.6318 43.905 18.6318 44.3238C18.6318 44.7426 18.9711 45.0812 19.3892 45.0812H49.5323C49.9511 45.0812 50.2897 44.7426 50.2897 44.3238C50.2897 43.905 49.9511 43.5664 49.5323 43.5664Z" fill="#2E3A59"/>
<path d="M49.5323 51.1401H19.3892C18.9711 51.1401 18.6318 51.4787 18.6318 51.8975C18.6318 52.3164 18.9711 52.6549 19.3892 52.6549H49.5323C49.9511 52.6549 50.2897 52.3164 50.2897 51.8975C50.2897 51.4787 49.9511 51.1401 49.5323 51.1401Z" fill="#2E3A59"/>
<path d="M35.8994 58.7139H19.3892C18.9711 58.7139 18.6318 59.0524 18.6318 59.4712C18.6318 59.8901 18.9711 60.2286 19.3892 60.2286H35.8994C36.3182 60.2286 36.6568 59.8901 36.6568 59.4712C36.6568 59.0524 36.3182 58.7139 35.8994 58.7139Z" fill="#2E3A59"/>
</svg>
