<svg width="20" height="20" viewBox="0 0 20 20" fill="none" xmlns="http://www.w3.org/2000/svg">
<path d="M7.5 7.5H5.83333V9.16667H7.5V7.5Z" fill="#2E3A59"/>
<path d="M9.16667 7.5H10.8333V9.16667H9.16667V7.5Z" fill="#2E3A59"/>
<path d="M14.1667 7.5H12.5V9.16667H14.1667V7.5Z" fill="#2E3A59"/>
<path d="M2.5 4.16667V17.5L6.5 14.5C6.78818 14.283 7.13928 14.166 7.5 14.1667H15.8333C16.7538 14.1667 17.5 13.4205 17.5 12.5V4.16667C17.5 3.24619 16.7538 2.5 15.8333 2.5H4.16667C3.24619 2.5 2.5 3.24619 2.5 4.16667ZM4.16667 14.1667V4.16667H15.8333V12.5H6.945C6.58423 12.499 6.23304 12.6161 5.945 12.8333L4.16667 14.1667Z" fill="#2E3A59"/>
</svg>
