<svg width="69" height="69" viewBox="0 0 69 69" fill="none" xmlns="http://www.w3.org/2000/svg">
<path d="M48.207 34.4855H28.5718C28.1538 34.4855 27.8145 34.1469 27.8145 33.7281C27.8145 33.3093 28.1538 32.9707 28.5718 32.9707H48.207C48.6258 32.9707 48.9644 33.3093 48.9644 33.7281C48.9644 34.1469 48.6258 34.4855 48.207 34.4855Z" fill="#2E3A59"/>
<path d="M45.1874 30.4332H31.5923C31.1743 30.4332 30.835 30.0939 30.835 29.6758C30.835 29.2578 31.1743 28.9185 31.5923 28.9185H45.1874C45.6062 28.9185 45.9447 29.2578 45.9447 29.6758C45.9447 30.0939 45.6062 30.4332 45.1874 30.4332Z" fill="#2E3A59"/>
<path d="M20.977 33.8785C20.4029 33.8785 19.8371 33.7521 19.313 33.4832C18.2746 32.9515 17.5596 31.9639 17.2991 30.7028C17.0514 29.5031 17.2506 28.1883 17.858 27.0015C18.4655 25.8147 19.4167 24.8861 20.5346 24.3847C21.7093 23.8599 22.9295 23.8622 23.9679 24.3946C26.0529 25.4633 26.7058 28.3708 25.4228 30.877C24.4624 32.7523 22.6848 33.8785 20.977 33.8785ZM22.291 25.5102C21.9229 25.5102 21.5374 25.5958 21.1542 25.7677C20.3498 26.1282 19.6583 26.8114 19.2069 27.6922C18.7555 28.5731 18.6056 29.5334 18.7828 30.3968C18.9479 31.1997 19.3819 31.8169 20.0037 32.135C21.3443 32.8212 23.1718 31.948 24.0746 30.1855C24.9774 28.4231 24.62 26.4304 23.2771 25.7427C22.9749 25.5875 22.6409 25.5102 22.291 25.5102Z" fill="#2E3A59"/>
<path d="M55.7905 33.8847C55.2119 33.8847 54.6173 33.7544 54.0334 33.4923C52.9147 32.9925 51.9642 32.0624 51.3568 30.8763C50.0738 28.3702 50.7259 25.4626 52.811 24.3939C53.8509 23.8615 55.068 23.8584 56.2442 24.3841C57.3628 24.8847 58.3134 25.814 58.9208 27.0008C60.2038 29.507 59.5517 32.4146 57.4666 33.4825C56.9433 33.7514 56.3752 33.8847 55.7905 33.8847ZM54.4878 25.5103C54.1379 25.5103 53.8039 25.5875 53.5009 25.7428C52.1589 26.4305 51.8014 28.4239 52.7034 30.1856C53.1548 31.0664 53.8463 31.7496 54.6507 32.1101C55.3982 32.4449 56.1525 32.4517 56.7751 32.1351C58.1172 31.4474 58.4747 29.454 57.5726 27.6915C57.1212 26.8107 56.4297 26.1275 55.6254 25.767C55.2414 25.5959 54.8567 25.5103 54.4878 25.5103Z" fill="#2E3A59"/>
<path d="M67.9887 46.8111C67.4018 44.8896 65.4651 43.705 63.4922 44.0572C63.1869 44.1118 62.865 44.183 62.553 44.2443C62.5788 44.1049 62.5962 43.9626 62.5962 43.8156V36.8825C62.7355 36.4364 62.8287 35.9699 62.856 35.4829L63.143 30.2865C63.3399 26.7321 62.0365 23.2224 59.5666 20.6571L57.0105 18.004L53.9264 10.2961C53.3591 8.8821 52.0807 7.89447 50.5879 7.718C42.4945 6.76067 34.286 6.76067 26.1918 7.718C24.699 7.89447 23.4198 8.88285 22.8533 10.2969L19.7684 18.004L17.213 20.6571C14.7432 23.2216 13.4398 26.7313 13.6359 30.2865L13.923 35.4837C13.9457 35.901 14.3077 36.2213 14.7212 36.1971C15.1386 36.1744 15.4589 35.8169 15.4355 35.3988L15.1484 30.2024C14.975 27.0661 16.1254 23.9699 18.3037 21.7076L20.753 19.1643C32.4576 18.5531 44.3213 18.5531 56.0259 19.1643L58.4753 21.7076C60.6542 23.9699 61.804 27.0661 61.6313 30.2024L61.3442 35.3988C61.22 37.6399 59.3644 39.3955 57.1203 39.3955H47.1251C46.7063 39.3955 46.3677 39.7341 46.3677 40.1529C46.3677 40.5718 46.7063 40.9103 47.1251 40.9103H50.987V43.8149C50.987 45.1009 52.033 46.1468 53.319 46.1468H54.5762C54.2627 46.2294 53.9567 46.3082 53.6394 46.3915C51.8095 46.8724 49.9289 47.3647 48.0643 47.8131C47.3925 44.7381 44.7083 42.4372 41.4909 42.3289L40.0413 42.2804C37.8025 42.2804 35.3713 41.4185 33.0211 40.5854C30.6854 39.7568 28.2701 38.9002 26.029 38.9002C22.676 38.9002 18.6339 39.4379 14.0729 43.4233C13.6973 43.7512 13.2595 43.936 12.7672 43.9277L11.7591 43.8815V41.2799C11.7591 40.8611 11.4198 40.5225 11.0017 40.5225H0.757383C0.339308 40.5225 0 40.8611 0 41.2799V61.6914C0 62.1102 0.339308 62.4488 0.757383 62.4488H11.0025C11.4206 62.4488 11.7599 62.1102 11.7599 61.6914V58.7073H15.4059C16.6276 58.7073 17.8508 58.8421 19.0398 59.1064L29.9469 61.5391C30.9239 61.7573 31.9237 61.8678 32.9242 61.8678C32.9901 61.8678 33.0567 61.8671 33.1234 61.8663L39.1597 61.7785C40.96 61.7527 42.7103 61.3786 44.3599 60.6689L65.7537 51.6333C67.6244 50.8297 68.584 48.756 67.9887 46.8111ZM21.5574 17.6117L24.2597 10.8596C24.6195 9.96061 25.4276 9.3335 26.3698 9.22216C34.3458 8.27922 42.4346 8.27922 50.4106 9.22216C51.3521 9.33274 52.161 9.96061 52.52 10.8596L55.2223 17.6117C44.0456 17.0573 32.7341 17.0573 21.5574 17.6117ZM52.501 43.8149V40.9103H57.1203C58.6517 40.9103 60.0483 40.3082 61.0814 39.3236V43.8149C61.0814 44.2655 60.7148 44.6321 60.2642 44.6321H53.3182C52.8684 44.6328 52.501 44.2655 52.501 43.8149ZM10.2459 60.934H1.51477V42.0373H10.2451L10.2459 60.934ZM65.1614 50.2397L43.7669 59.2753C42.2968 59.9077 40.7389 60.2402 39.1385 60.2637L33.1022 60.3516C32.1532 60.3622 31.2034 60.2675 30.2779 60.0615L19.3708 57.6288C18.0734 57.3387 16.7397 57.1925 15.4074 57.1925H11.7614V45.3978L12.7293 45.4417C12.7369 45.4417 12.7445 45.4417 12.7521 45.4417C13.5996 45.4417 14.4228 45.1304 15.0712 44.5639C19.2542 40.908 22.9585 40.415 26.0305 40.415C28.011 40.415 30.1991 41.1905 32.516 42.0123C34.9873 42.8886 37.5412 43.7952 40.0148 43.7944C40.0156 43.7944 40.0163 43.7944 40.0163 43.7944L41.4402 43.8421C43.9668 43.9277 46.0739 45.7394 46.5912 48.1569C40.1784 49.6096 34.1754 50.317 31.4041 47.7752C31.0959 47.4927 30.6164 47.5132 30.3339 47.8222C30.0507 48.1304 30.0719 48.6091 30.3801 48.8924C34.7722 52.9216 44.5606 50.3465 54.0256 47.857C57.5119 46.9398 60.8057 46.0741 63.758 45.5478C64.9834 45.3304 66.1778 46.0628 66.5421 47.2534C66.9095 48.4591 66.3142 49.7437 65.1614 50.2397Z" fill="#2E3A59"/>
</svg>
