<svg width="69" height="69" viewBox="0 0 69 69" fill="none" xmlns="http://www.w3.org/2000/svg">
<path d="M55.9781 53.3963C52.8312 53.3963 50.2705 50.8356 50.2705 47.6879C50.2705 44.5402 52.8312 41.9795 55.9781 41.9795C59.1258 41.9795 61.6865 44.5402 61.6865 47.6879C61.6865 50.8356 59.1258 53.3963 55.9781 53.3963ZM55.9781 43.4943C53.6659 43.4943 51.7853 45.3756 51.7853 47.6879C51.7853 50.0002 53.6659 51.8815 55.9781 51.8815C58.2904 51.8815 60.1718 50.0002 60.1718 47.6879C60.1718 45.3756 58.2904 43.4943 55.9781 43.4943Z" fill="#2E3A59"/>
<path d="M10.5678 53.3963C7.42009 53.3963 4.85938 50.8356 4.85938 47.6879C4.85938 44.5402 7.42009 41.9795 10.5678 41.9795C13.7155 41.9795 16.2762 44.5402 16.2762 47.6879C16.2762 50.8356 13.7155 53.3963 10.5678 53.3963ZM10.5678 43.4943C8.25548 43.4943 6.37414 45.3756 6.37414 47.6879C6.37414 50.0002 8.25548 51.8815 10.5678 51.8815C12.8801 51.8815 14.7614 50.0002 14.7614 47.6879C14.7614 45.3756 12.8801 43.4943 10.5678 43.4943Z" fill="#2E3A59"/>
<path d="M65.1132 48.4632L60.9211 48.445C60.503 48.4397 60.1682 48.0974 60.1728 47.6786C60.1773 47.2605 60.4856 46.928 60.9392 46.9303L65.1139 46.9484C66.1705 46.9484 67.0293 46.0888 67.0293 45.033V36.0777C67.0293 29.4915 64.4656 20.2159 58.7663 20.2159H52.8489C52.7815 20.2159 52.7148 20.2068 52.6504 20.1894L41.9213 17.2757V39.5943C41.9213 40.0131 41.5828 40.3516 41.164 40.3516H2.93356C2.36022 40.3509 1.89367 40.8174 1.89367 41.39V44.5528C1.89367 45.1936 2.14361 45.795 2.59652 46.2464C3.04792 46.6978 3.64777 46.9454 4.28624 46.9454C4.28776 46.9454 4.28927 46.9454 4.29155 46.9454L5.60863 46.9295C6.0002 46.9325 6.3698 47.2605 6.37511 47.6778C6.38041 48.0951 6.04489 48.439 5.62681 48.4443L4.30215 48.4602C4.29912 48.4602 4.29609 48.4602 4.29306 48.4602C3.24409 48.4602 2.26403 48.055 1.5271 47.3188C0.786378 46.5811 0.378906 45.598 0.378906 44.5528V41.39C0.378906 39.982 1.52483 38.8361 2.93356 38.8361H40.4066V16.2843C40.4066 16.048 40.5172 15.8261 40.7042 15.6829C40.8928 15.5398 41.1375 15.4928 41.3624 15.5542L52.9496 18.7011H58.7663C65.9402 18.7011 68.5441 29.0931 68.5441 36.0777V45.033C68.5434 46.9242 67.0043 48.4632 65.1132 48.4632Z" fill="#2E3A59"/>
<path d="M51.0277 48.4449H30.5943C30.1762 48.4449 29.8369 48.1064 29.8369 47.6876C29.8369 47.2687 30.1762 46.9302 30.5943 46.9302H51.0277C51.4466 46.9302 51.7851 47.2687 51.7851 47.6876C51.7851 48.1064 51.4466 48.4449 51.0277 48.4449Z" fill="#2E3A59"/>
<path d="M55.9781 48.4429C55.8796 48.4429 55.7804 48.427 55.6903 48.3898C55.5911 48.352 55.5161 48.2914 55.4403 48.2232C55.2964 48.0793 55.2207 47.89 55.2207 47.6855C55.2207 47.587 55.2427 47.4886 55.2813 47.3977C55.3192 47.3068 55.3714 47.2235 55.4403 47.1553C55.7198 46.8675 56.2356 46.8675 56.5158 47.1553C56.584 47.2235 56.637 47.3068 56.6749 47.3977C56.7127 47.4886 56.7355 47.587 56.7355 47.6855C56.7355 47.89 56.659 48.0793 56.5158 48.2232C56.4393 48.2914 56.3568 48.352 56.2659 48.3898C56.175 48.4277 56.0765 48.4429 55.9781 48.4429Z" fill="#2E3A59"/>
<path d="M10.5655 48.4429C10.467 48.4429 10.3686 48.427 10.2777 48.3898C10.1868 48.3527 10.1035 48.2914 10.0353 48.2232C9.95958 48.1551 9.90657 48.0717 9.8687 47.9809C9.83083 47.89 9.80811 47.7915 9.80811 47.6855C9.80811 47.4886 9.89142 47.2909 10.0353 47.1553C10.308 46.8675 10.823 46.8675 11.1032 47.1553C11.2471 47.2916 11.3229 47.4886 11.3229 47.6855C11.3229 47.7915 11.3077 47.8824 11.2699 47.9809C11.232 48.0717 11.1714 48.1551 11.1032 48.2232C11.0351 48.2914 10.9518 48.352 10.8609 48.3898C10.7624 48.427 10.6715 48.4429 10.5655 48.4429Z" fill="#2E3A59"/>
<path d="M67.6457 34.0041H52.8472C52.4284 34.0041 52.0898 33.6648 52.0898 33.2467V19.4586C52.0898 19.0405 52.4284 18.7012 52.8472 18.7012C53.2661 18.7012 53.6046 19.0405 53.6046 19.4586V32.4893H67.6457C68.0646 32.4893 68.4031 32.8286 68.4031 33.2467C68.4031 33.6648 68.0646 34.0041 67.6457 34.0041Z" fill="#2E3A59"/>
<path d="M25.6435 53.3963C22.4958 53.3963 19.9351 50.8356 19.9351 47.6879C19.9351 44.5402 22.4958 41.9795 25.6435 41.9795C28.7911 41.9795 31.3518 44.5402 31.3518 47.6879C31.3518 50.8356 28.7911 53.3963 25.6435 53.3963ZM25.6435 43.4943C23.3312 43.4943 21.4498 45.3756 21.4498 47.6879C21.4498 50.0002 23.3312 51.8815 25.6435 51.8815C27.9557 51.8815 29.8371 50.0002 29.8371 47.6879C29.8371 45.3756 27.9557 43.4943 25.6435 43.4943Z" fill="#2E3A59"/>
<path d="M25.6451 48.4429C25.4406 48.4429 25.2512 48.3664 25.1073 48.2232C25.0392 48.1551 24.9786 48.0717 24.9407 47.9809C24.9028 47.8824 24.8877 47.7915 24.8877 47.6855C24.8877 47.4886 24.9634 47.2909 25.1073 47.1553C25.3876 46.8675 25.895 46.8675 26.1752 47.1553C26.3191 47.2916 26.4025 47.4886 26.4025 47.6855C26.4025 47.7915 26.3797 47.8824 26.3419 47.9809C26.304 48.0717 26.251 48.1551 26.1752 48.2232C26.1071 48.2914 26.0238 48.352 25.9329 48.3898C25.842 48.4277 25.7435 48.4429 25.6451 48.4429Z" fill="#2E3A59"/>
<path d="M20.6928 48.4449H15.5191C15.101 48.4449 14.7617 48.1064 14.7617 47.6876C14.7617 47.2687 15.101 46.9302 15.5191 46.9302H20.6928C21.1109 46.9302 21.4502 47.2687 21.4502 47.6876C21.4502 48.1064 21.1116 48.4449 20.6928 48.4449Z" fill="#2E3A59"/>
<path d="M30.9238 38.8124C29.1631 38.8124 27.7305 37.3798 27.7305 35.6191C27.7305 33.8584 29.1631 32.4258 30.9238 32.4258C32.6845 32.4258 34.1171 33.8584 34.1171 35.6191C34.1171 37.3798 32.6845 38.8124 30.9238 38.8124ZM30.9238 33.2241C29.6029 33.2241 28.5288 34.2983 28.5288 35.6191C28.5288 36.9399 29.6029 38.0141 30.9238 38.0141C32.2446 38.0141 33.3188 36.9399 33.3188 35.6191C33.3188 34.2983 32.2446 33.2241 30.9238 33.2241Z" fill="#2E3A59"/>
<path d="M9.33297 38.8124C7.57225 38.8124 6.13965 37.3798 6.13965 35.6191C6.13965 33.8584 7.57225 32.4258 9.33297 32.4258C11.0937 32.4258 12.5263 33.8584 12.5263 35.6191C12.5263 37.3798 11.0937 38.8124 9.33297 38.8124ZM9.33297 33.2241C8.01213 33.2241 6.93798 34.2983 6.93798 35.6191C6.93798 36.9399 8.01213 38.0141 9.33297 38.0141C10.6538 38.0141 11.728 36.9399 11.728 35.6191C11.728 34.2983 10.6538 33.2241 9.33297 33.2241Z" fill="#2E3A59"/>
<path d="M36.444 36.1414H33.7177C33.497 36.1414 33.3186 35.963 33.3186 35.7422C33.3186 35.5215 33.497 35.3431 33.7177 35.3431H36.444C36.7574 35.3431 37.0128 35.0876 37.0128 34.7743V31.3151C37.0128 30.9171 36.7298 30.5711 36.3399 30.492L29.5054 29.1057C29.2894 29.0618 29.1497 28.8511 29.1936 28.6351C29.2375 28.4192 29.4451 28.2782 29.6646 28.3234L36.4987 29.7097C37.2591 29.8637 37.8112 30.5391 37.8112 31.3151V34.7743C37.8112 35.5283 37.1981 36.1414 36.444 36.1414Z" fill="#2E3A59"/>
<path d="M28.1346 36.1411H12.1233C11.9029 36.1411 11.7241 35.9627 11.7241 35.7419C11.7241 35.5212 11.9029 35.3428 12.1233 35.3428H28.1346C28.3553 35.3428 28.5337 35.5212 28.5337 35.7419C28.5337 35.9627 28.3553 36.1411 28.1346 36.1411Z" fill="#2E3A59"/>
<path d="M6.53898 36.0183C6.49148 36.0183 6.44358 36.01 6.39688 35.9924L2.14378 34.3686C1.9889 34.3095 1.88672 34.1614 1.88672 33.9958V29.5563C1.88672 28.8705 2.37849 28.2957 3.05587 28.1899L7.22674 27.5357L9.31318 25.5207C10.5163 24.3588 12.0997 23.7189 13.7722 23.7189H21.3009C22.8784 23.7089 24.4555 24.2318 25.7144 25.2082L29.8298 28.3991C30.0043 28.534 30.0362 28.7847 29.9009 28.9591C29.766 29.1332 29.5153 29.1659 29.3413 29.0298L25.2259 25.8389C24.1082 24.9727 22.7079 24.506 21.3053 24.5172H13.7722C12.3077 24.5172 10.921 25.0776 9.86762 26.0947L7.69057 28.1975C7.6315 28.2546 7.55645 28.2921 7.47502 28.3049L3.17921 28.9783C2.89301 29.0234 2.68505 29.2665 2.68505 29.5563V33.7208L6.68148 35.246C6.88745 35.3246 6.99084 35.5553 6.9122 35.7613C6.85153 35.9206 6.69985 36.0183 6.53898 36.0183Z" fill="#2E3A59"/>
<path d="M17.1334 29.9201H12.0592C11.5363 29.9201 11.0633 29.6311 10.825 29.1657C10.5863 28.7003 10.6282 28.1474 10.9336 27.7231L12.3654 25.7341C12.4939 25.5552 12.7434 25.5141 12.9226 25.6431C13.1015 25.772 13.1422 26.0211 13.0136 26.2003L11.5818 28.1893C11.4501 28.3721 11.4329 28.6009 11.5359 28.8016C11.6385 29.002 11.8345 29.1218 12.0596 29.1218H17.1334C17.3538 29.1218 17.5326 29.3006 17.5326 29.5209C17.5326 29.7413 17.3538 29.9201 17.1334 29.9201Z" fill="#2E3A59"/>
<path d="M26.3139 29.9203H20.6026C20.1675 29.9203 19.766 29.7219 19.5013 29.3766C19.2367 29.031 19.15 28.5919 19.2638 28.1715L19.8881 25.8632C19.9456 25.65 20.1659 25.5251 20.3775 25.5822C20.5902 25.6396 20.7164 25.8588 20.6585 26.0719L20.0342 28.3803C19.9859 28.5583 20.0226 28.7448 20.1348 28.8916C20.2469 29.0381 20.4174 29.1224 20.6022 29.1224H26.3139C26.5346 29.1224 26.713 29.3012 26.713 29.5215C26.713 29.7419 26.5346 29.9203 26.3139 29.9203Z" fill="#2E3A59"/>
</svg>
